{"title":"Newton (2017) 1080p WEBHD H264 AAC2.0 ESub - DTOne","magnet":"magnet:?xt=urn:btih:6aa9c739e1848663a651de829ead04fb1749d74f&dn=Newton+%282017%29+1080p+WEBHD+H264+AAC2.0+ESub+-+DTOne&tr=udp%3A%2F%2Ftracker.leechers-paradise.org%3A6969&tr=udp%3A%2F%2Fzer0day.ch%3A1337&tr=udp%3A%2F%2Fopen.demonii.com%3A1337&tr=udp%3A%2F%2Ftracker.coppersurfer.tk%3A6969&tr=udp%3A%2F%2Fexodus.desync.com%3A6969","uploader":"SaM","categoryP":"video","categoryS":"hd___movies","size":"6272064525","seeders":"0","leechers":"0","description":" <a href=\"https://www.ettv.tv/\" rel=\"nofollow\" target=\"_NEW\">https://www.ettv.tv/</a> \r\n\r\n~ Newton (2017) ~\r\n\r\n** 1080p/ WEBHD / H264 / AAC2.0 / ESubs **\r\n\r\n\r\nVideo\r\nID                          : 1\r\nFormat                      : AVC\r\nFormat/Info                 : Advanced Video Codec\r\nFormat profile              : <a href=\"/cdn-cgi/l/email-protection\" class=\"__cf_email__\" data-cfemail=\"d29fb3bbbc929ee6\">[email&#xA0;protected]</a>\r\nFormat settings             : CABAC / 3 Ref Frames\r\nFormat settings, CABAC      : Yes\r\nFormat settings, RefFrames  : 3 frames\r\nCodec ID                    : avc1\r\nCodec ID/Info               : Advanced Video Coding\r\nDuration                    : 1 h 44 min\r\nBit rate                    : 7 724 kb/s\r\nWidth                       : 1 920 pixels\r\nHeight                      : 1 080 pixels\r\nDisplay aspect ratio        : 16:9\r\nFrame rate mode             : Constant\r\nFrame rate                  : 25.000 FPS\r\nColor space                 : YUV\r\nChroma subsampling          : 4:2:0\r\nBit depth                   : 8 bits\r\nScan type                   : Progressive\r\nBits/(Pixel*Frame)          : 0.149\r\nStream size                 : 5.64 GiB (97%)\r\n\r\nAudio\r\nID                          : 2\r\nFormat                      : AAC\r\nFormat/Info                 : Advanced Audio Codec\r\nFormat profile              : LC\r\nCodec ID                    : mp4a-40-2\r\nDuration                    : 1 h 44 min\r\nBit rate mode               : Variable\r\nBit rate                    : 258 kb/s\r\nMaximum bit rate            : 343 kb/s\r\nChannel(s)                  : 2 channels\r\nChannel positions           : Front: L R\r\nSampling rate               : 44.1 kHz\r\nFrame rate                  : 43.066 FPS (1024 SPF)\r\nCompression mode            : Lossy\r\nStream size                 : 193 MiB (3%)\r\nLanguage                    : Hindi\r\nDefault                     : Yes \r\n <a href=\"\nhttps://extraimage.net/image/TuT8\" rel=\"nofollow\" target=\"_NEW\">\nhttps://extraimage.net/image/TuT8</a> <a href=\"\nhttps://extraimage.net/image/TuNf\" rel=\"nofollow\" target=\"_NEW\">\nhttps://extraimage.net/image/TuNf</a> <a href=\"\nhttps://extraimage.net/image/TuNW\" rel=\"nofollow\" target=\"_NEW\">\nhttps://extraimage.net/image/TuNW</a> <a href=\"\nhttps://extraimage.net/image/TuNA\" rel=\"nofollow\" target=\"_NEW\">\nhttps://extraimage.net/image/TuNA</a> <a href=\"\nhttps://extraimage.net/image/TuNv\" rel=\"nofollow\" target=\"_NEW\">\nhttps://extraimage.net/image/TuNv</a> <a href=\"\nhttps://extraimage.net/image/TuNu\" rel=\"nofollow\" target=\"_NEW\">\nhttps://extraimage.net/image/TuNu</a> <a href=\"\nhttps://extraimage.net/image/TuNV\" rel=\"nofollow\" target=\"_NEW\">\nhttps://extraimage.net/image/TuNV</a> <a href=\"\nhttps://extraimage.net/image/TuN6\" rel=\"nofollow\" target=\"_NEW\">\nhttps://extraimage.net/image/TuN6</a> <a href=\"\nhttps://extraimage.net/image/TuNx\" rel=\"nofollow\" target=\"_NEW\">\nhttps://extraimage.net/image/TuNx</a>","last_updated":"2017-11-18T12:00:34.949Z","parsed":{"xt":"urn:btih:6aa9c739e1848663a651de829ead04fb1749d74f","dn":"Newton (2017) 1080p WEBHD H264 AAC2.0 ESub - DTOne","tr":["udp://exodus.desync.com:6969","udp://open.demonii.com:1337","udp://tracker.coppersurfer.tk:6969","udp://tracker.leechers-paradise.org:6969","udp://zer0day.ch:1337"],"infoHash":"6aa9c739e1848663a651de829ead04fb1749d74f","infoHashBuffer":{"type":"Buffer","data":[106,169,199,57,225,132,134,99,166,81,222,130,158,173,4,251,23,73,215,79]},"name":"Newton (2017) 1080p WEBHD H264 AAC2.0 ESub - DTOne","announce":["udp://exodus.desync.com:6969","udp://open.demonii.com:1337","udp://tracker.coppersurfer.tk:6969","udp://tracker.leechers-paradise.org:6969","udp://zer0day.ch:1337"],"urlList":[]}}